<svg xmlns="http://www.w3.org/2000/svg" viewBox="0 0 500 440" role="img" aria-labelledby="title desc"><title id="title">Northern Lights neon sign concept</title><desc id="desc">A green neon leaf above outlined Northern lettering and script-style Lights. A design interpretation of the supplied sign photo.</desc><defs><filter id="glow" x="-60%" y="-60%" width="220%" height="220%"><feGaussianBlur stdDeviation="4"/></filter><radialGradient id="bg"><stop stop-color="#103e22" stop-opacity=".55"/><stop offset="1" stop-color="#030805" stop-opacity="0"/></radialGradient><path id="leaf" d="M250 221 C238 191 204 151 184 77 C219 104 239 139 248 168 C242 117 251 70 277 29 C281 84 269 129 257 171 C281 132 310 104 350 93 C330 129 298 159 267 183 C303 163 333 161 363 173 C337 194 304 203 268 201 C290 205 314 219 321 239 C291 237 271 227 255 215 C260 239 265 254 261 268 L252 270 C254 247 247 231 248 215 C231 234 208 243 187 238 C200 219 217 211 236 204 C206 212 170 211 146 198 C174 180 207 180 233 188 C196 169 166 141 153 107 C193 116 224 147 244 184"/></defs><ellipse cx="250" cy="200" rx="215" ry="190" fill="url(#bg)"/><g fill="none" stroke="#24ed78" stroke-linecap="round" stroke-linejoin="round"><use href="#leaf" stroke-width="7" filter="url(#glow)" opacity=".85"/><use href="#leaf" stroke-width="2.4"/><path d="M252 217 L265 76 M250 202 L195 108 M259 197 L326 115 M240 197 L173 195 M267 197 L336 177" opacity=".65" stroke-width="1.5"/></g><text x="250" y="326" text-anchor="middle" font-family="Arial, sans-serif" font-size="53" font-weight="700" letter-spacing="1" fill="none" stroke="#fff" stroke-width="3" filter="url(#glow)" opacity=".65">NORTHERN</text><text x="250" y="326" text-anchor="middle" font-family="Arial, sans-serif" font-size="53" font-weight="700" letter-spacing="1" fill="#060c09" stroke="#f1fff6" stroke-width="1.4">NORTHERN</text><text x="250" y="383" text-anchor="middle" font-family="cursive" font-style="italic" font-size="51" fill="#dffff0" filter="url(#glow)" opacity=".8">Lights</text><text x="250" y="383" text-anchor="middle" font-family="cursive" font-style="italic" font-size="51" fill="#f3fff6">Lights</text><path d="M196 396 Q250 404 301 386" fill="none" stroke="#edfff4" stroke-width="1.7"/></svg>